{
    "asset" : {
        "generator" : "Khronos glTF Blender I/O v1.1.45",
        "version" : "2.0"
    },
    "scene" : 0,
    "scenes" : [
        {
            "name" : "Scene",
            "nodes" : [
                0,
                1,
                3
            ]
        }
    ],
    "nodes" : [
        {
            "name" : "Camera",
            "rotation" : [
                0.15561453998088837,
                0.839739978313446,
                -0.4128383696079254,
                0.31652069091796875
            ],
            "translation" : [
                0.26580294966697693,
                0.3301176428794861,
                -0.3090273439884186
            ]
        },
        {
            "name" : "Point",
            "translation" : [
                3.6196439266204834,
                3.2346062660217285,
                1.7796839475631714
            ]
        },
        {
            "mesh" : 0,
            "name" : "Icing.001",
            "translation" : [
                0,
                0.0002498812973499298,
                0
            ]
        },
        {
            "children" : [
                2
            ],
            "mesh" : 1,
            "name" : "Doughnut",
            "translation" : [
                0,
                0.030095648020505905,
                0
            ]
        }
    ],
    "materials" : [
        {
            "doubleSided" : true,
            "emissiveFactor" : [
                0,
                0,
                0
            ],
            "name" : "Material.003",
            "pbrMetallicRoughness" : {
                "baseColorTexture" : {
                    "index" : 0,
                    "texCoord" : 0
                },
                "metallicFactor" : 0,
                "roughnessFactor" : 0.5
            }
        }
    ],
    "meshes" : [
        {
            "name" : "Torus.004",
            "primitives" : [
                {
                    "attributes" : {
                        "POSITION" : 0,
                        "NORMAL" : 1,
                        "TEXCOORD_0" : 2,
                        "JOINTS_0" : 3,
                        "WEIGHTS_0" : 4
                    },
                    "indices" : 5
                }
            ]
        },
        {
            "name" : "Torus.001",
            "primitives" : [
                {
                    "attributes" : {
                        "POSITION" : 6,
                        "NORMAL" : 7,
                        "TEXCOORD_0" : 8
                    },
                    "indices" : 9,
                    "material" : 0
                }
            ]
        }
    ],
    "textures" : [
        {
            "source" : 0
        }
    ],
    "images" : [
        {
            "bufferView" : 10,
            "mimeType" : "image/png",
            "name" : "Doughnut Texture"
        }
    ],
    "accessors" : [
        {
            "bufferView" : 0,
            "componentType" : 5126,
            "count" : 834,
            "max" : [
                0.07864485681056976,
                0.03391159325838089,
                0.07980889081954956
            ],
            "min" : [
                -0.07967594265937805,
                -0.002146296203136444,
                -0.08169613778591156
            ],
            "type" : "VEC3"
        },
        {
            "bufferView" : 1,
            "componentType" : 5126,
            "count" : 834,
            "type" : "VEC3"
        },
        {
            "bufferView" : 2,
            "componentType" : 5126,
            "count" : 834,
            "type" : "VEC2"
        },
        {
            "bufferView" : 3,
            "componentType" : 5123,
            "count" : 834,
            "type" : "VEC4"
        },
        {
            "bufferView" : 4,
            "componentType" : 5126,
            "count" : 834,
            "type" : "VEC4"
        },
        {
            "bufferView" : 5,
            "componentType" : 5123,
            "count" : 4470,
            "type" : "SCALAR"
        },
        {
            "bufferView" : 6,
            "componentType" : 5126,
            "count" : 2325,
            "max" : [
                0.0797085165977478,
                0.033790502697229385,
                0.08097027242183685
            ],
            "min" : [
                -0.07964272797107697,
                -0.029985440894961357,
                -0.08148032426834106
            ],
            "type" : "VEC3"
        },
        {
            "bufferView" : 7,
            "componentType" : 5126,
            "count" : 2325,
            "type" : "VEC3"
        },
        {
            "bufferView" : 8,
            "componentType" : 5126,
            "count" : 2325,
            "type" : "VEC2"
        },
        {
            "bufferView" : 9,
            "componentType" : 5123,
            "count" : 13320,
            "type" : "SCALAR"
        }
    ],
    "bufferViews" : [
        {
            "buffer" : 0,
            "byteLength" : 10008,
            "byteOffset" : 0
        },
        {
            "buffer" : 0,
            "byteLength" : 10008,
            "byteOffset" : 10008
        },
        {
            "buffer" : 0,
            "byteLength" : 6672,
            "byteOffset" : 20016
        },
        {
            "buffer" : 0,
            "byteLength" : 6672,
            "byteOffset" : 26688
        },
        {
            "buffer" : 0,
            "byteLength" : 13344,
            "byteOffset" : 33360
        },
        {
            "buffer" : 0,
            "byteLength" : 8940,
            "byteOffset" : 46704
        },
        {
            "buffer" : 0,
            "byteLength" : 27900,
            "byteOffset" : 55644
        },
        {
            "buffer" : 0,
            "byteLength" : 27900,
            "byteOffset" : 83544
        },
        {
            "buffer" : 0,
            "byteLength" : 18600,
            "byteOffset" : 111444
        },
        {
            "buffer" : 0,
            "byteLength" : 26640,
            "byteOffset" : 130044
        },
        {
            "buffer" : 0,
            "byteLength" : 217931,
            "byteOffset" : 156684
        }
    ],
    "buffers" : [
        {
            "byteLength" : 374616,
            "uri" : "data:application/octet-stream;base64,"
        }
    ]
}
